<?xml version="1.0" standalone="no"?>
<!DOCTYPE svg PUBLIC "-//W3C//DTD SVG 20010904//EN"
 "http://www.w3.org/TR/2001/REC-SVG-20010904/DTD/svg10.dtd">
<svg version="1.0" xmlns="http://www.w3.org/2000/svg"
 width="266.000000pt" height="266.000000pt" viewBox="0 0 266.000000 266.000000"
 preserveAspectRatio="xMidYMid meet">
<metadata>
Created by potrace 1.11, written by Peter Selinger 2001-2013
</metadata>
<g transform="translate(0.000000,266.000000) scale(0.100000,-0.100000)"
fill="#000000" stroke="none">
<path d="M300 1713 l0 -568 29 -55 c23 -45 49 -71 142 -143 63 -48 121 -93
129 -100 8 -7 59 -45 113 -85 53 -41 102 -82 107 -92 6 -10 10 -95 10 -189 l0
-171 233 0 232 0 -2 342 c-1 226 -5 349 -13 363 -18 34 -66 60 -265 145 -104
45 -203 88 -220 95 -169 73 -195 89 -238 150 -21 29 -22 40 -27 450 l-5 420
-112 3 -113 3 0 -568z"/>
<path d="M2108 1868 c-3 -402 -4 -414 -25 -454 -36 -68 -97 -100 -488 -259
-167 -68 -232 -103 -254 -139 -20 -32 -21 -47 -21 -370 l0 -336 240 0 240 0 0
171 c0 94 4 178 10 188 5 10 114 97 242 194 214 160 236 179 261 228 l27 54 0
568 0 567 -115 0 -114 0 -3 -412z"/>
<path d="M641 2241 l-31 -29 0 -362 c0 -398 0 -397 62 -443 18 -13 105 -54
193 -91 88 -38 183 -78 210 -91 148 -66 200 -87 230 -92 26 -4 88 19 326 122
162 70 309 138 327 152 62 47 62 45 62 452 l0 370 -26 20 c-26 20 -38 21 -330
21 l-303 0 -21 -27 -22 -28 -20 28 -20 27 -303 0 -303 0 -31 -29z"/>
</g>
</svg>
